; NON-PLATED HOLES START AT T1
; THROUGH (PLATED) HOLES START AT T100
M48
INCH
T1C0.086614
T100C0.038000
T101C0.036111
T102C0.040000
T103C0.035000
T104C0.032000
T105C0.046111
T106C0.030000
T107C0.042000
%
T1
X022105Y000709
X000845Y021969
X021908Y021969
X000845Y000709
X000845Y010551
X021908Y010551
T100
X018168Y002677
X018168Y003677
X020530Y001646
X004585Y009370
X018168Y004677
X020530Y002646
X020530Y003646
X020530Y004646
X004585Y010370
T101
X009121Y011937
X011121Y020937
X012121Y020937
X013121Y020937
X011121Y011937
X012121Y011937
X013121Y011937
X006121Y020937
X007121Y020937
X006121Y011937
X007121Y011937
X010121Y020937
X008121Y020937
X009121Y020937
X010121Y011937
X008121Y011937
T102
X004128Y001299
X008128Y001299
T103
X020924Y013701
X007932Y008976
X021381Y015669
X015199Y004646
X014656Y009764
X015199Y001646
X017577Y008189
X012656Y009764
X011278Y002220
X020987Y011142
X016987Y011142
X016924Y013701
X016199Y004646
X017381Y015669
X007932Y009976
X014199Y004646
X016199Y001646
X021577Y008189
X013656Y009764
X013199Y004646
X014199Y001646
X020987Y012323
X016987Y012323
X007932Y010976
X013199Y001646
X011278Y006221
T104
X007900Y008189
X008900Y008189
X009900Y008189
X006900Y005189
X007900Y005189
X008900Y005189
X009900Y005189
X006900Y008189
T105
X018168Y017788
X018168Y018788
X018168Y019788
X018168Y020787
T106
X015412Y007813
X012656Y006795
X015412Y006811
X012656Y007795
T107
X001782Y005433
X006723Y003071
X009703Y003071
X017550Y006614
X017550Y009567
X004782Y005433
X020530Y006614
X020530Y009567
T00
M30
